<svg width="25" height="24" viewBox="0 0 25 24" fill="none" xmlns="http://www.w3.org/2000/svg">
<path d="M9.53125 3.84375L10.125 3.375V3.375C11.5175 2.27565 13.4825 2.27565 14.875 3.375L20.4786 7.79888C21.4394 8.55744 22 9.71422 22 10.9384V17.5C22 19.7091 20.2091 21.5 18 21.5H16.5C15.9477 21.5 15.5 21.0523 15.5 20.5V18.5M5.96875 6.65625L5.375 7.125L4.52142 7.79888C3.56058 8.55744 3 9.71422 3 10.9384L3 17.5C3 19.7091 4.79086 21.5 7 21.5H8.5C9.05228 21.5 9.5 21.0523 9.5 20.5V17.5C9.5 16.3954 10.3954 15.5 11.5 15.5H12.5" stroke="#9B9B9B" stroke-width="1.5" stroke-linecap="round"/>
</svg>
