<svg width="200" height="200" viewBox="0 0 378 300" fill="none" xmlns="http://www.w3.org/2000/svg">
<path d="M276.718 104.092V98.8319H297.056V104.092L283.178 120.827H297.295V126.086H276V120.827L289.878 104.092H276.718Z" fill="#DEDDDD"/>
<path d="M302.509 132.721V129.374H315.669V132.721L306.816 143.479H315.909V146.826H302.031V143.479L310.884 132.721H302.509Z" fill="#DEDDDD"/>
<g clip-path="url(#clip0_1_897)">
<g opacity="0.45">
<rect x="275.453" y="197.896" width="19.845" height="97.335" fill="#DEDDDD"/>
<rect x="219.698" y="240.421" width="19.845" height="54.81" fill="#DEDDDD"/>
<path d="M239.543 163.876L257.498 148.756L275.453 163.876V295.231H239.543V163.876Z" fill="#DEDDDD"/>
<rect x="245.213" y="168.601" width="10.395" height="25.515" fill="white"/>
<rect x="245.213" y="197.896" width="10.395" height="25.515" fill="white"/>
<rect x="245.213" y="227.191" width="10.395" height="25.515" fill="white"/>
<rect x="259.388" y="168.601" width="10.395" height="25.515" fill="white"/>
<rect x="259.388" y="197.896" width="10.395" height="25.515" fill="white"/>
<rect x="259.388" y="227.191" width="10.395" height="25.515" fill="white"/>
<rect x="245.213" y="257.431" width="24.57" height="37.8" fill="white"/>
<rect x="115.748" y="163.876" width="26.46" height="131.355" fill="#DEDDDD"/>
<rect x="120.473" y="156.316" width="17.01" height="7.56" fill="#DEDDDD"/>
<path d="M123.308 148.756L128.978 144.503L134.648 148.756V156.316H123.308V148.756Z" fill="#DEDDDD"/>
<path d="M142.208 210.181L168.668 225.301V295.231H142.208V210.181Z" fill="#DEDDDD"/>
</g>
<path d="M44.3895 294.785H304.398" stroke="#DEDDDD" stroke-width="1.89" stroke-miterlimit="10"/>
<path d="M313.503 294.785H345.637" stroke="#DEDDDD" stroke-width="1.89" stroke-miterlimit="10"/>
<rect x="137.054" y="226.293" width="28.5173" height="11.8822" fill="#C0C0C0"/>
<rect x="127.549" y="216.788" width="133.081" height="9.50576" fill="#DDDDDD"/>
<path d="M120.788 207.876L194.458 155L268.128 207.876V217.382H120.788V207.876Z" fill="#CCC8C8"/>
<path d="M151.682 201.85L194.458 171.635L237.234 201.85V207.282H151.682V201.85Z" fill="#E9E9E9"/>
<rect x="120.419" y="286.893" width="147.339" height="8.31754" fill="#DBD7D7"/>
<rect x="137.054" y="273.822" width="28.5173" height="13.0704" fill="#C0C0C0"/>
<rect x="142.996" y="238.175" width="16.6351" height="35.6466" fill="#D2CFCF"/>
<rect x="222.606" y="226.293" width="28.5173" height="11.8822" fill="#C0C0C0"/>
<rect x="228.547" y="238.175" width="16.6351" height="35.6466" fill="#D2CFCF"/>
<rect x="222.606" y="273.822" width="28.5173" height="13.0704" fill="#C0C0C0"/>
</g>
<path d="M91.8294 216.073C91.8294 216.073 88.1352 214.686 86.2903 221.605C84.4454 228.525 78.9062 227.16 77.5203 235.016C76.1344 242.873 77.9617 250.729 76.5979 254.423C75.234 258.117 71.0587 264.144 74.2895 271.524C77.5203 278.903 84.9044 283.538 95.0602 280.763C105.216 277.988 114.922 278.916 116.29 262.744C117.658 246.571 104.289 250.265 104.753 243.337C105.216 236.408 112.137 234.093 107.061 227.624C101.985 221.155 98.2911 223.002 95.9827 218.844C93.6744 214.686 91.8294 216.073 91.8294 216.073Z" fill="#DEDDDD"/>
<path d="M93.5535 294.753L93.2727 221.397H93.0255L90.9121 294.893L93.5535 294.753Z" fill="#F5F5F5"/>
<path d="M91.4233 276.207L75.1854 264.135L92.4076 274.484L91.4233 276.207Z" fill="#F5F5F5"/>
<path d="M92.6635 252.978L80.601 244.012L93.3962 251.696L92.6635 252.978Z" fill="#F5F5F5"/>
<path d="M93.3963 267.586L109.634 255.514L92.4076 265.859L93.3963 267.586Z" fill="#F5F5F5"/>
<path d="M93.5464 239.651L104.219 231.72L92.902 238.516L93.5464 239.651Z" fill="#F5F5F5"/>
<!-- <path d="M131.752 327.153V325.377H134.36C134.701 325.377 135.011 325.308 135.288 325.169C135.565 325.031 135.784 324.833 135.944 324.577C136.104 324.311 136.184 323.991 136.184 323.617C136.184 323.255 136.104 322.94 135.944 322.673C135.784 322.407 135.565 322.204 135.288 322.065C135.011 321.927 134.701 321.857 134.36 321.857H131.752V320.081H134.584C135.299 320.081 135.939 320.225 136.504 320.513C137.08 320.801 137.533 321.212 137.864 321.745C138.195 322.268 138.36 322.892 138.36 323.617C138.36 324.343 138.195 324.972 137.864 325.505C137.533 326.028 137.08 326.433 136.504 326.721C135.939 327.009 135.299 327.153 134.584 327.153H131.752ZM130.152 331.329V320.081H132.328V331.329H130.152ZM143.124 331.489C142.313 331.489 141.593 331.319 140.964 330.977C140.335 330.625 139.833 330.145 139.46 329.537C139.097 328.929 138.916 328.236 138.916 327.457C138.916 326.689 139.092 326.007 139.444 325.409C139.807 324.801 140.297 324.321 140.916 323.969C141.535 323.607 142.223 323.425 142.98 323.425C143.727 323.425 144.383 323.596 144.948 323.937C145.524 324.268 145.972 324.727 146.292 325.313C146.623 325.889 146.788 326.545 146.788 327.281C146.788 327.42 146.777 327.564 146.756 327.713C146.745 327.852 146.719 328.012 146.676 328.193L140.18 328.209V326.641L145.7 326.625L144.852 327.281C144.831 326.823 144.745 326.439 144.596 326.129C144.457 325.82 144.249 325.585 143.972 325.425C143.705 325.255 143.375 325.169 142.98 325.169C142.564 325.169 142.201 325.265 141.892 325.457C141.583 325.639 141.343 325.9 141.172 326.241C141.012 326.572 140.932 326.967 140.932 327.425C140.932 327.895 141.017 328.305 141.188 328.657C141.369 328.999 141.625 329.265 141.956 329.457C142.287 329.639 142.671 329.729 143.108 329.729C143.503 329.729 143.86 329.665 144.18 329.537C144.5 329.399 144.777 329.196 145.012 328.929L146.244 330.161C145.871 330.599 145.412 330.929 144.868 331.153C144.335 331.377 143.753 331.489 143.124 331.489ZM150.74 331.505C150.303 331.505 149.871 331.447 149.444 331.329C149.028 331.212 148.644 331.052 148.292 330.849C147.94 330.636 147.636 330.38 147.38 330.081L148.628 328.817C148.895 329.116 149.204 329.34 149.556 329.489C149.908 329.639 150.298 329.713 150.724 329.713C151.066 329.713 151.322 329.665 151.492 329.569C151.674 329.473 151.764 329.329 151.764 329.137C151.764 328.924 151.668 328.759 151.476 328.641C151.295 328.524 151.055 328.428 150.756 328.353C150.458 328.268 150.143 328.177 149.812 328.081C149.492 327.975 149.183 327.841 148.884 327.681C148.586 327.511 148.34 327.281 148.148 326.993C147.967 326.695 147.876 326.311 147.876 325.841C147.876 325.351 147.994 324.924 148.228 324.561C148.474 324.199 148.82 323.916 149.268 323.713C149.716 323.511 150.244 323.409 150.852 323.409C151.492 323.409 152.068 323.521 152.58 323.745C153.103 323.969 153.535 324.305 153.876 324.753L152.612 326.017C152.378 325.729 152.111 325.521 151.812 325.393C151.524 325.265 151.21 325.201 150.868 325.201C150.559 325.201 150.319 325.249 150.148 325.345C149.988 325.441 149.908 325.575 149.908 325.745C149.908 325.937 149.999 326.087 150.18 326.193C150.372 326.3 150.618 326.396 150.916 326.481C151.215 326.556 151.524 326.647 151.844 326.753C152.175 326.849 152.484 326.988 152.772 327.169C153.071 327.351 153.311 327.591 153.492 327.889C153.684 328.188 153.78 328.572 153.78 329.041C153.78 329.799 153.508 330.401 152.964 330.849C152.42 331.287 151.679 331.505 150.74 331.505ZM158.426 331.489C157.722 331.489 157.087 331.313 156.522 330.961C155.956 330.609 155.514 330.129 155.194 329.521C154.874 328.913 154.714 328.231 154.714 327.473C154.714 326.705 154.874 326.017 155.194 325.409C155.514 324.801 155.956 324.321 156.522 323.969C157.087 323.617 157.722 323.441 158.426 323.441C158.98 323.441 159.476 323.553 159.914 323.777C160.351 324.001 160.698 324.316 160.954 324.721C161.22 325.116 161.364 325.564 161.386 326.065V328.849C161.364 329.361 161.22 329.815 160.954 330.209C160.698 330.604 160.351 330.919 159.914 331.153C159.476 331.377 158.98 331.489 158.426 331.489ZM158.81 329.553C159.396 329.553 159.871 329.361 160.234 328.977C160.596 328.583 160.778 328.076 160.778 327.457C160.778 327.052 160.692 326.695 160.522 326.385C160.362 326.065 160.132 325.82 159.834 325.649C159.546 325.468 159.204 325.377 158.81 325.377C158.426 325.377 158.084 325.468 157.786 325.649C157.498 325.82 157.268 326.065 157.098 326.385C156.938 326.695 156.858 327.052 156.858 327.457C156.858 327.873 156.938 328.241 157.098 328.561C157.268 328.871 157.498 329.116 157.786 329.297C158.084 329.468 158.426 329.553 158.81 329.553ZM160.666 331.329V329.249L161.002 327.361L160.666 325.505V323.601H162.746V331.329H160.666ZM169.8 331.329V326.897C169.8 326.439 169.656 326.065 169.368 325.777C169.08 325.489 168.707 325.345 168.248 325.345C167.949 325.345 167.683 325.409 167.448 325.537C167.213 325.665 167.027 325.847 166.888 326.081C166.76 326.316 166.696 326.588 166.696 326.897L165.88 326.481C165.88 325.873 166.008 325.345 166.264 324.897C166.531 324.439 166.893 324.081 167.352 323.825C167.821 323.569 168.349 323.441 168.936 323.441C169.501 323.441 170.008 323.585 170.456 323.873C170.904 324.151 171.256 324.519 171.512 324.977C171.768 325.425 171.896 325.911 171.896 326.433V331.329H169.8ZM164.6 331.329V323.601H166.696V331.329H164.6ZM176.816 331.489C176.112 331.489 175.478 331.313 174.912 330.961C174.347 330.609 173.904 330.129 173.584 329.521C173.264 328.913 173.104 328.231 173.104 327.473C173.104 326.705 173.264 326.017 173.584 325.409C173.904 324.801 174.347 324.321 174.912 323.969C175.478 323.617 176.112 323.441 176.816 323.441C177.371 323.441 177.867 323.553 178.304 323.777C178.742 324.001 179.088 324.316 179.344 324.721C179.611 325.116 179.755 325.564 179.776 326.065V328.849C179.755 329.361 179.611 329.815 179.344 330.209C179.088 330.604 178.742 330.919 178.304 331.153C177.867 331.377 177.371 331.489 176.816 331.489ZM177.2 329.553C177.787 329.553 178.262 329.361 178.624 328.977C178.987 328.583 179.168 328.076 179.168 327.457C179.168 327.052 179.083 326.695 178.912 326.385C178.752 326.065 178.523 325.82 178.224 325.649C177.936 325.468 177.595 325.377 177.2 325.377C176.816 325.377 176.475 325.468 176.176 325.649C175.888 325.82 175.659 326.065 175.488 326.385C175.328 326.695 175.248 327.052 175.248 327.457C175.248 327.873 175.328 328.241 175.488 328.561C175.659 328.871 175.888 329.116 176.176 329.297C176.475 329.468 176.816 329.553 177.2 329.553ZM179.056 331.329V329.249L179.392 327.361L179.056 325.505V323.601H181.136V331.329H179.056ZM188.191 331.329V326.897C188.191 326.439 188.047 326.065 187.759 325.777C187.471 325.489 187.097 325.345 186.639 325.345C186.34 325.345 186.073 325.409 185.839 325.537C185.604 325.665 185.417 325.847 185.279 326.081C185.151 326.316 185.087 326.588 185.087 326.897L184.271 326.481C184.271 325.873 184.399 325.345 184.655 324.897C184.921 324.439 185.284 324.081 185.743 323.825C186.212 323.569 186.74 323.441 187.327 323.441C187.892 323.441 188.399 323.585 188.847 323.873C189.295 324.151 189.647 324.519 189.903 324.977C190.159 325.425 190.286 325.911 190.286 326.433V331.329H188.191ZM182.991 331.329V323.601H185.087V331.329H182.991ZM202.124 331.329L197.244 325.457L201.996 320.081H204.716L199.42 325.921L199.436 324.913L204.892 331.329H202.124ZM195.324 331.329V320.081H197.5V331.329H195.324ZM209.029 331.489C208.25 331.489 207.546 331.313 206.917 330.961C206.298 330.599 205.802 330.113 205.429 329.505C205.066 328.887 204.885 328.199 204.885 327.441C204.885 326.684 205.066 326.007 205.429 325.409C205.791 324.801 206.287 324.321 206.917 323.969C207.546 323.607 208.245 323.425 209.013 323.425C209.802 323.425 210.506 323.607 211.125 323.969C211.754 324.321 212.25 324.801 212.613 325.409C212.975 326.007 213.157 326.684 213.157 327.441C213.157 328.199 212.975 328.887 212.613 329.505C212.25 330.113 211.754 330.599 211.125 330.961C210.506 331.313 209.807 331.489 209.029 331.489ZM209.013 329.537C209.407 329.537 209.754 329.452 210.053 329.281C210.362 329.1 210.597 328.855 210.757 328.545C210.927 328.225 211.013 327.863 211.013 327.457C211.013 327.052 210.927 326.695 210.757 326.385C210.586 326.076 210.351 325.836 210.053 325.665C209.754 325.484 209.407 325.393 209.013 325.393C208.629 325.393 208.287 325.484 207.989 325.665C207.69 325.836 207.455 326.076 207.285 326.385C207.114 326.695 207.029 327.052 207.029 327.457C207.029 327.863 207.114 328.225 207.285 328.545C207.455 328.855 207.69 329.1 207.989 329.281C208.287 329.452 208.629 329.537 209.013 329.537ZM217.162 331.505C216.725 331.505 216.293 331.447 215.866 331.329C215.45 331.212 215.066 331.052 214.714 330.849C214.362 330.636 214.058 330.38 213.802 330.081L215.05 328.817C215.317 329.116 215.626 329.34 215.978 329.489C216.33 329.639 216.719 329.713 217.146 329.713C217.487 329.713 217.743 329.665 217.914 329.569C218.095 329.473 218.186 329.329 218.186 329.137C218.186 328.924 218.09 328.759 217.898 328.641C217.717 328.524 217.477 328.428 217.178 328.353C216.879 328.268 216.565 328.177 216.234 328.081C215.914 327.975 215.605 327.841 215.306 327.681C215.007 327.511 214.762 327.281 214.57 326.993C214.389 326.695 214.298 326.311 214.298 325.841C214.298 325.351 214.415 324.924 214.65 324.561C214.895 324.199 215.242 323.916 215.69 323.713C216.138 323.511 216.666 323.409 217.274 323.409C217.914 323.409 218.49 323.521 219.002 323.745C219.525 323.969 219.957 324.305 220.298 324.753L219.034 326.017C218.799 325.729 218.533 325.521 218.234 325.393C217.946 325.265 217.631 325.201 217.29 325.201C216.981 325.201 216.741 325.249 216.57 325.345C216.41 325.441 216.33 325.575 216.33 325.745C216.33 325.937 216.421 326.087 216.602 326.193C216.794 326.3 217.039 326.396 217.338 326.481C217.637 326.556 217.946 326.647 218.266 326.753C218.597 326.849 218.906 326.988 219.194 327.169C219.493 327.351 219.733 327.591 219.914 327.889C220.106 328.188 220.202 328.572 220.202 329.041C220.202 329.799 219.93 330.401 219.386 330.849C218.842 331.287 218.101 331.505 217.162 331.505ZM225.248 331.489C224.469 331.489 223.765 331.313 223.136 330.961C222.517 330.599 222.021 330.113 221.648 329.505C221.285 328.887 221.104 328.199 221.104 327.441C221.104 326.684 221.285 326.007 221.648 325.409C222.01 324.801 222.506 324.321 223.136 323.969C223.765 323.607 224.464 323.425 225.232 323.425C226.021 323.425 226.725 323.607 227.344 323.969C227.973 324.321 228.469 324.801 228.832 325.409C229.194 326.007 229.376 326.684 229.376 327.441C229.376 328.199 229.194 328.887 228.832 329.505C228.469 330.113 227.973 330.599 227.344 330.961C226.725 331.313 226.026 331.489 225.248 331.489ZM225.232 329.537C225.626 329.537 225.973 329.452 226.272 329.281C226.581 329.1 226.816 328.855 226.976 328.545C227.146 328.225 227.232 327.863 227.232 327.457C227.232 327.052 227.146 326.695 226.976 326.385C226.805 326.076 226.57 325.836 226.272 325.665C225.973 325.484 225.626 325.393 225.232 325.393C224.848 325.393 224.506 325.484 224.208 325.665C223.909 325.836 223.674 326.076 223.504 326.385C223.333 326.695 223.248 327.052 223.248 327.457C223.248 327.863 223.333 328.225 223.504 328.545C223.674 328.855 223.909 329.1 224.208 329.281C224.506 329.452 224.848 329.537 225.232 329.537ZM235.925 331.329V326.897C235.925 326.439 235.781 326.065 235.493 325.777C235.205 325.489 234.832 325.345 234.373 325.345C234.074 325.345 233.808 325.409 233.573 325.537C233.338 325.665 233.152 325.847 233.013 326.081C232.885 326.316 232.821 326.588 232.821 326.897L232.005 326.481C232.005 325.873 232.133 325.345 232.389 324.897C232.656 324.439 233.018 324.081 233.477 323.825C233.946 323.569 234.474 323.441 235.061 323.441C235.626 323.441 236.133 323.585 236.581 323.873C237.029 324.151 237.381 324.519 237.637 324.977C237.893 325.425 238.021 325.911 238.021 326.433V331.329H235.925ZM230.725 331.329V323.601H232.821V331.329H230.725ZM242.941 334.753C242.12 334.753 241.395 334.604 240.765 334.305C240.136 334.017 239.635 333.607 239.261 333.073L240.589 331.745C240.888 332.097 241.219 332.364 241.581 332.545C241.955 332.737 242.403 332.833 242.925 332.833C243.576 332.833 244.088 332.668 244.461 332.337C244.845 332.007 245.037 331.548 245.037 330.961V329.025L245.389 327.329L245.053 325.633V323.601H247.133V330.929C247.133 331.697 246.952 332.364 246.589 332.929C246.237 333.505 245.747 333.953 245.117 334.273C244.488 334.593 243.763 334.753 242.941 334.753ZM242.845 331.121C242.152 331.121 241.528 330.956 240.973 330.625C240.419 330.284 239.981 329.82 239.661 329.233C239.352 328.647 239.197 327.991 239.197 327.265C239.197 326.54 239.352 325.889 239.661 325.313C239.981 324.737 240.419 324.284 240.973 323.953C241.528 323.612 242.152 323.441 242.845 323.441C243.421 323.441 243.928 323.553 244.365 323.777C244.813 324.001 245.165 324.311 245.421 324.705C245.677 325.089 245.816 325.543 245.837 326.065V328.497C245.816 329.009 245.672 329.468 245.405 329.873C245.149 330.268 244.797 330.577 244.349 330.801C243.912 331.015 243.411 331.121 242.845 331.121ZM243.261 329.217C243.645 329.217 243.976 329.137 244.253 328.977C244.541 328.807 244.765 328.577 244.925 328.289C245.085 327.991 245.165 327.655 245.165 327.281C245.165 326.897 245.085 326.561 244.925 326.273C244.765 325.985 244.541 325.761 244.253 325.601C243.976 325.431 243.645 325.345 243.261 325.345C242.877 325.345 242.541 325.431 242.253 325.601C241.965 325.761 241.741 325.991 241.581 326.289C241.421 326.577 241.341 326.908 241.341 327.281C241.341 327.644 241.421 327.975 241.581 328.273C241.741 328.561 241.965 328.791 242.253 328.961C242.541 329.132 242.877 329.217 243.261 329.217Z" fill="#334A34"/> -->
<!-- <path d="M109.372 351.329L112.78 343.001H113.596L116.992 351.329H115.768L112.972 344.285H113.392L110.572 351.329H109.372ZM110.992 349.445V348.461H115.372V349.445H110.992ZM119.398 351.377L116.926 345.629H118.126L119.962 350.129H119.578L121.51 345.629H122.71L120.046 351.377H119.398ZM117.766 353.717L119.446 350.273L120.046 351.377L118.966 353.717H117.766ZM125.978 351.449C125.418 351.449 124.914 351.317 124.466 351.053C124.018 350.789 123.662 350.433 123.398 349.985C123.134 349.529 123.002 349.021 123.002 348.461C123.002 347.909 123.134 347.413 123.398 346.973C123.662 346.525 124.018 346.169 124.466 345.905C124.914 345.641 125.418 345.509 125.978 345.509C126.53 345.509 127.03 345.641 127.478 345.905C127.934 346.161 128.294 346.513 128.558 346.961C128.822 347.409 128.954 347.909 128.954 348.461C128.954 349.021 128.822 349.529 128.558 349.985C128.294 350.433 127.934 350.789 127.478 351.053C127.03 351.317 126.53 351.449 125.978 351.449ZM125.978 350.405C126.338 350.405 126.658 350.321 126.938 350.153C127.218 349.985 127.438 349.757 127.598 349.469C127.758 349.173 127.838 348.837 127.838 348.461C127.838 348.093 127.754 347.765 127.586 347.477C127.426 347.189 127.206 346.965 126.926 346.805C126.654 346.637 126.338 346.553 125.978 346.553C125.618 346.553 125.298 346.637 125.018 346.805C124.738 346.965 124.518 347.189 124.358 347.477C124.198 347.765 124.118 348.093 124.118 348.461C124.118 348.837 124.198 349.173 124.358 349.469C124.518 349.757 124.738 349.985 125.018 350.153C125.298 350.321 125.618 350.405 125.978 350.405ZM133.543 351.329V343.241H134.623V351.329H133.543ZM132.139 346.613V345.629H136.027V346.613H132.139ZM139.333 351.449C138.813 351.449 138.341 351.321 137.917 351.065C137.493 350.801 137.157 350.445 136.909 349.997C136.669 349.549 136.549 349.045 136.549 348.485C136.549 347.925 136.669 347.421 136.909 346.973C137.157 346.525 137.489 346.169 137.905 345.905C138.329 345.641 138.805 345.509 139.333 345.509C139.765 345.509 140.149 345.601 140.485 345.785C140.829 345.961 141.105 346.209 141.313 346.529C141.521 346.841 141.637 347.205 141.661 347.621V349.337C141.637 349.745 141.521 350.109 141.313 350.429C141.113 350.749 140.841 351.001 140.497 351.185C140.161 351.361 139.773 351.449 139.333 351.449ZM139.513 350.429C140.049 350.429 140.481 350.249 140.809 349.889C141.137 349.521 141.301 349.053 141.301 348.485C141.301 348.093 141.225 347.753 141.073 347.465C140.929 347.169 140.721 346.941 140.449 346.781C140.177 346.613 139.861 346.529 139.501 346.529C139.141 346.529 138.821 346.613 138.541 346.781C138.269 346.949 138.053 347.181 137.893 347.477C137.741 347.765 137.665 348.097 137.665 348.473C137.665 348.857 137.741 349.197 137.893 349.493C138.053 349.781 138.273 350.009 138.553 350.177C138.833 350.345 139.153 350.429 139.513 350.429ZM141.229 351.329V349.793L141.433 348.401L141.229 347.021V345.629H142.321V351.329H141.229ZM143.894 351.329V345.629H144.974V351.329H143.894ZM147.746 351.329V347.885C147.746 347.461 147.614 347.129 147.35 346.889C147.094 346.641 146.77 346.517 146.378 346.517C146.114 346.517 145.878 346.573 145.67 346.685C145.462 346.797 145.294 346.953 145.166 347.153C145.038 347.353 144.974 347.593 144.974 347.873L144.53 347.657C144.53 347.225 144.622 346.849 144.806 346.529C144.998 346.209 145.258 345.961 145.586 345.785C145.914 345.601 146.282 345.509 146.69 345.509C147.09 345.509 147.45 345.597 147.77 345.773C148.098 345.949 148.354 346.197 148.538 346.517C148.73 346.837 148.826 347.217 148.826 347.657V351.329H147.746ZM151.598 351.329V347.885C151.598 347.461 151.466 347.129 151.202 346.889C150.946 346.641 150.626 346.517 150.242 346.517C149.978 346.517 149.738 346.573 149.522 346.685C149.314 346.797 149.146 346.953 149.018 347.153C148.89 347.353 148.826 347.593 148.826 347.873L148.214 347.657C148.238 347.217 148.354 346.841 148.562 346.529C148.778 346.209 149.054 345.961 149.39 345.785C149.726 345.601 150.094 345.509 150.494 345.509C150.91 345.509 151.282 345.597 151.61 345.773C151.938 345.949 152.198 346.197 152.39 346.517C152.59 346.837 152.69 347.221 152.69 347.669V351.329H151.598ZM157.159 351.449C156.727 351.449 156.335 351.361 155.983 351.185C155.639 351.001 155.363 350.749 155.155 350.429C154.947 350.109 154.831 349.745 154.807 349.337V347.621C154.831 347.205 154.947 346.841 155.155 346.529C155.371 346.209 155.651 345.961 155.995 345.785C156.347 345.601 156.735 345.509 157.159 345.509C157.679 345.509 158.147 345.641 158.563 345.905C158.987 346.169 159.319 346.525 159.559 346.973C159.799 347.421 159.919 347.925 159.919 348.485C159.919 349.045 159.799 349.549 159.559 349.997C159.319 350.445 158.987 350.801 158.563 351.065C158.147 351.321 157.679 351.449 157.159 351.449ZM156.979 350.429C157.339 350.429 157.655 350.345 157.927 350.177C158.199 350.009 158.415 349.781 158.575 349.493C158.735 349.197 158.815 348.857 158.815 348.473C158.815 348.097 158.735 347.761 158.575 347.465C158.415 347.169 158.199 346.941 157.927 346.781C157.655 346.613 157.343 346.529 156.991 346.529C156.631 346.529 156.315 346.613 156.043 346.781C155.771 346.941 155.559 347.169 155.407 347.465C155.255 347.761 155.179 348.101 155.179 348.485C155.179 348.861 155.251 349.197 155.395 349.493C155.547 349.781 155.759 350.009 156.031 350.177C156.311 350.345 156.627 350.429 156.979 350.429ZM154.159 351.329V342.761H155.239V347.021L155.035 348.401L155.239 349.793V351.329H154.159ZM163.568 351.449C163.048 351.449 162.576 351.321 162.152 351.065C161.728 350.801 161.392 350.445 161.144 349.997C160.904 349.549 160.784 349.045 160.784 348.485C160.784 347.925 160.904 347.421 161.144 346.973C161.392 346.525 161.724 346.169 162.14 345.905C162.564 345.641 163.04 345.509 163.568 345.509C164 345.509 164.384 345.601 164.72 345.785C165.064 345.961 165.34 346.209 165.548 346.529C165.756 346.841 165.872 347.205 165.896 347.621V349.337C165.872 349.745 165.756 350.109 165.548 350.429C165.348 350.749 165.076 351.001 164.732 351.185C164.396 351.361 164.008 351.449 163.568 351.449ZM163.748 350.429C164.284 350.429 164.716 350.249 165.044 349.889C165.372 349.521 165.536 349.053 165.536 348.485C165.536 348.093 165.46 347.753 165.308 347.465C165.164 347.169 164.956 346.941 164.684 346.781C164.412 346.613 164.096 346.529 163.736 346.529C163.376 346.529 163.056 346.613 162.776 346.781C162.504 346.949 162.288 347.181 162.128 347.477C161.976 347.765 161.9 348.097 161.9 348.473C161.9 348.857 161.976 349.197 162.128 349.493C162.288 349.781 162.508 350.009 162.788 350.177C163.068 350.345 163.388 350.429 163.748 350.429ZM165.464 351.329V349.793L165.668 348.401L165.464 347.021V345.629H166.556V351.329H165.464ZM172.16 351.329V348.005C172.16 347.573 172.024 347.217 171.752 346.937C171.48 346.657 171.128 346.517 170.696 346.517C170.408 346.517 170.152 346.581 169.928 346.709C169.704 346.837 169.528 347.013 169.4 347.237C169.272 347.461 169.208 347.717 169.208 348.005L168.764 347.753C168.764 347.321 168.86 346.937 169.052 346.601C169.244 346.265 169.512 346.001 169.856 345.809C170.2 345.609 170.588 345.509 171.02 345.509C171.452 345.509 171.832 345.605 172.16 345.797C172.496 345.989 172.76 346.257 172.952 346.601C173.144 346.945 173.24 347.341 173.24 347.789V351.329H172.16ZM168.128 351.329V342.761H169.208V351.329H168.128ZM178.35 351.329L175.686 348.413L178.326 345.629H179.634L176.694 348.701L176.742 348.077L179.742 351.329H178.35ZM174.702 351.329V342.761H175.782V351.329H174.702ZM182.775 351.449C182.255 351.449 181.783 351.321 181.359 351.065C180.935 350.801 180.599 350.445 180.351 349.997C180.111 349.549 179.991 349.045 179.991 348.485C179.991 347.925 180.111 347.421 180.351 346.973C180.599 346.525 180.931 346.169 181.347 345.905C181.771 345.641 182.247 345.509 182.775 345.509C183.207 345.509 183.591 345.601 183.927 345.785C184.271 345.961 184.547 346.209 184.755 346.529C184.963 346.841 185.079 347.205 185.103 347.621V349.337C185.079 349.745 184.963 350.109 184.755 350.429C184.555 350.749 184.283 351.001 183.939 351.185C183.603 351.361 183.215 351.449 182.775 351.449ZM182.955 350.429C183.491 350.429 183.923 350.249 184.251 349.889C184.579 349.521 184.743 349.053 184.743 348.485C184.743 348.093 184.667 347.753 184.515 347.465C184.371 347.169 184.163 346.941 183.891 346.781C183.619 346.613 183.303 346.529 182.943 346.529C182.583 346.529 182.263 346.613 181.983 346.781C181.711 346.949 181.495 347.181 181.335 347.477C181.183 347.765 181.107 348.097 181.107 348.473C181.107 348.857 181.183 349.197 181.335 349.493C181.495 349.781 181.715 350.009 181.995 350.177C182.275 350.345 182.595 350.429 182.955 350.429ZM184.671 351.329V349.793L184.875 348.401L184.671 347.021V345.629H185.763V351.329H184.671ZM191.367 351.329V348.005C191.367 347.573 191.231 347.217 190.959 346.937C190.687 346.657 190.335 346.517 189.903 346.517C189.615 346.517 189.359 346.581 189.135 346.709C188.911 346.837 188.735 347.013 188.607 347.237C188.479 347.461 188.415 347.717 188.415 348.005L187.971 347.753C187.971 347.321 188.067 346.937 188.259 346.601C188.451 346.265 188.719 346.001 189.063 345.809C189.407 345.609 189.795 345.509 190.227 345.509C190.659 345.509 191.039 345.617 191.367 345.833C191.703 346.049 191.967 346.333 192.159 346.685C192.351 347.029 192.447 347.397 192.447 347.789V351.329H191.367ZM187.335 351.329V345.629H188.415V351.329H187.335ZM199.405 351.449C198.973 351.449 198.581 351.361 198.229 351.185C197.885 351.001 197.609 350.749 197.401 350.429C197.193 350.109 197.077 349.745 197.053 349.337V347.621C197.077 347.205 197.193 346.841 197.401 346.529C197.617 346.209 197.897 345.961 198.241 345.785C198.593 345.601 198.981 345.509 199.405 345.509C199.925 345.509 200.393 345.641 200.809 345.905C201.233 346.169 201.565 346.525 201.805 346.973C202.045 347.421 202.165 347.925 202.165 348.485C202.165 349.045 202.045 349.549 201.805 349.997C201.565 350.445 201.233 350.801 200.809 351.065C200.393 351.321 199.925 351.449 199.405 351.449ZM199.225 350.429C199.585 350.429 199.901 350.345 200.173 350.177C200.445 350.009 200.661 349.781 200.821 349.493C200.981 349.197 201.061 348.857 201.061 348.473C201.061 348.097 200.981 347.761 200.821 347.465C200.661 347.169 200.445 346.941 200.173 346.781C199.901 346.613 199.589 346.529 199.237 346.529C198.877 346.529 198.561 346.613 198.289 346.781C198.017 346.941 197.805 347.169 197.653 347.465C197.501 347.761 197.425 348.101 197.425 348.485C197.425 348.861 197.497 349.197 197.641 349.493C197.793 349.781 198.005 350.009 198.277 350.177C198.557 350.345 198.873 350.429 199.225 350.429ZM196.405 353.717V345.629H197.485V347.129L197.281 348.509L197.485 349.901V353.717H196.405ZM206.03 351.449C205.462 351.449 204.95 351.321 204.494 351.065C204.038 350.801 203.678 350.445 203.414 349.997C203.15 349.549 203.018 349.041 203.018 348.473C203.018 347.913 203.146 347.409 203.402 346.961C203.666 346.513 204.018 346.161 204.458 345.905C204.906 345.641 205.406 345.509 205.958 345.509C206.486 345.509 206.95 345.629 207.35 345.869C207.758 346.109 208.074 346.441 208.298 346.865C208.53 347.289 208.646 347.769 208.646 348.305C208.646 348.385 208.642 348.473 208.634 348.569C208.626 348.657 208.61 348.761 208.586 348.881H203.774V347.981H208.01L207.614 348.329C207.614 347.945 207.546 347.621 207.41 347.357C207.274 347.085 207.082 346.877 206.834 346.733C206.586 346.581 206.286 346.505 205.934 346.505C205.566 346.505 205.242 346.585 204.962 346.745C204.682 346.905 204.466 347.129 204.314 347.417C204.162 347.705 204.086 348.045 204.086 348.437C204.086 348.837 204.166 349.189 204.326 349.493C204.486 349.789 204.714 350.021 205.01 350.189C205.306 350.349 205.646 350.429 206.03 350.429C206.35 350.429 206.642 350.373 206.906 350.261C207.178 350.149 207.41 349.981 207.602 349.757L208.298 350.465C208.026 350.785 207.69 351.029 207.29 351.197C206.898 351.365 206.478 351.449 206.03 351.449ZM211.635 351.449C211.315 351.449 211.011 351.409 210.723 351.329C210.443 351.241 210.183 351.121 209.943 350.969C209.703 350.809 209.495 350.621 209.319 350.405L210.015 349.709C210.223 349.965 210.463 350.157 210.735 350.285C211.007 350.405 211.311 350.465 211.647 350.465C211.983 350.465 212.243 350.409 212.427 350.297C212.611 350.177 212.703 350.013 212.703 349.805C212.703 349.597 212.627 349.437 212.475 349.325C212.331 349.205 212.143 349.109 211.911 349.037C211.679 348.957 211.431 348.881 211.167 348.809C210.911 348.729 210.667 348.629 210.435 348.509C210.203 348.389 210.011 348.225 209.859 348.017C209.715 347.809 209.643 347.533 209.643 347.189C209.643 346.845 209.727 346.549 209.895 346.301C210.063 346.045 210.295 345.849 210.591 345.713C210.895 345.577 211.259 345.509 211.683 345.509C212.131 345.509 212.527 345.589 212.871 345.749C213.223 345.901 213.511 346.133 213.735 346.445L213.039 347.141C212.879 346.933 212.679 346.773 212.439 346.661C212.207 346.549 211.943 346.493 211.647 346.493C211.335 346.493 211.095 346.549 210.927 346.661C210.767 346.765 210.687 346.913 210.687 347.105C210.687 347.297 210.759 347.445 210.903 347.549C211.047 347.653 211.235 347.741 211.467 347.813C211.707 347.885 211.955 347.961 212.211 348.041C212.467 348.113 212.711 348.213 212.943 348.341C213.175 348.469 213.363 348.641 213.507 348.857C213.659 349.073 213.735 349.357 213.735 349.709C213.735 350.245 213.543 350.669 213.159 350.981C212.783 351.293 212.275 351.449 211.635 351.449ZM217.368 351.449C216.848 351.449 216.376 351.321 215.952 351.065C215.528 350.801 215.192 350.445 214.944 349.997C214.704 349.549 214.584 349.045 214.584 348.485C214.584 347.925 214.704 347.421 214.944 346.973C215.192 346.525 215.524 346.169 215.94 345.905C216.364 345.641 216.84 345.509 217.368 345.509C217.8 345.509 218.184 345.601 218.52 345.785C218.864 345.961 219.14 346.209 219.348 346.529C219.556 346.841 219.672 347.205 219.696 347.621V349.337C219.672 349.745 219.556 350.109 219.348 350.429C219.148 350.749 218.876 351.001 218.532 351.185C218.196 351.361 217.808 351.449 217.368 351.449ZM217.548 350.429C218.084 350.429 218.516 350.249 218.844 349.889C219.172 349.521 219.336 349.053 219.336 348.485C219.336 348.093 219.26 347.753 219.108 347.465C218.964 347.169 218.756 346.941 218.484 346.781C218.212 346.613 217.896 346.529 217.536 346.529C217.176 346.529 216.856 346.613 216.576 346.781C216.304 346.949 216.088 347.181 215.928 347.477C215.776 347.765 215.7 348.097 215.7 348.473C215.7 348.857 215.776 349.197 215.928 349.493C216.088 349.781 216.308 350.009 216.588 350.177C216.868 350.345 217.188 350.429 217.548 350.429ZM219.264 351.329V349.793L219.468 348.401L219.264 347.021V345.629H220.356V351.329H219.264ZM225.961 351.329V348.005C225.961 347.573 225.825 347.217 225.553 346.937C225.281 346.657 224.929 346.517 224.497 346.517C224.209 346.517 223.953 346.581 223.729 346.709C223.505 346.837 223.329 347.013 223.201 347.237C223.073 347.461 223.009 347.717 223.009 348.005L222.565 347.753C222.565 347.321 222.661 346.937 222.853 346.601C223.045 346.265 223.313 346.001 223.657 345.809C224.001 345.609 224.389 345.509 224.821 345.509C225.253 345.509 225.633 345.617 225.961 345.833C226.297 346.049 226.561 346.333 226.753 346.685C226.945 347.029 227.041 347.397 227.041 347.789V351.329H225.961ZM221.929 351.329V345.629H223.009V351.329H221.929ZM230.927 351.449C230.407 351.449 229.935 351.321 229.511 351.065C229.087 350.801 228.751 350.445 228.503 349.997C228.263 349.549 228.143 349.045 228.143 348.485C228.143 347.925 228.263 347.421 228.503 346.973C228.751 346.525 229.083 346.169 229.499 345.905C229.923 345.641 230.399 345.509 230.927 345.509C231.359 345.509 231.743 345.601 232.079 345.785C232.423 345.961 232.699 346.209 232.907 346.529C233.115 346.841 233.231 347.205 233.255 347.621V349.337C233.231 349.745 233.115 350.109 232.907 350.429C232.707 350.749 232.435 351.001 232.091 351.185C231.755 351.361 231.367 351.449 230.927 351.449ZM231.107 350.429C231.643 350.429 232.075 350.249 232.403 349.889C232.731 349.521 232.895 349.053 232.895 348.485C232.895 348.093 232.819 347.753 232.667 347.465C232.523 347.169 232.315 346.941 232.043 346.781C231.771 346.613 231.455 346.529 231.095 346.529C230.735 346.529 230.415 346.613 230.135 346.781C229.863 346.949 229.647 347.181 229.487 347.477C229.335 347.765 229.259 348.097 229.259 348.473C229.259 348.857 229.335 349.197 229.487 349.493C229.647 349.781 229.867 350.009 230.147 350.177C230.427 350.345 230.747 350.429 231.107 350.429ZM232.823 351.329V349.793L233.027 348.401L232.823 347.021V345.629H233.915V351.329H232.823ZM239.519 351.329V348.005C239.519 347.573 239.383 347.217 239.111 346.937C238.839 346.657 238.487 346.517 238.055 346.517C237.767 346.517 237.511 346.581 237.287 346.709C237.063 346.837 236.887 347.013 236.759 347.237C236.631 347.461 236.567 347.717 236.567 348.005L236.123 347.753C236.123 347.321 236.219 346.937 236.411 346.601C236.603 346.265 236.871 346.001 237.215 345.809C237.559 345.609 237.947 345.509 238.379 345.509C238.811 345.509 239.191 345.617 239.519 345.833C239.855 346.049 240.119 346.333 240.311 346.685C240.503 347.029 240.599 347.397 240.599 347.789V351.329H239.519ZM235.487 351.329V345.629H236.567V351.329H235.487ZM247.558 351.449C247.126 351.449 246.734 351.361 246.382 351.185C246.038 351.001 245.762 350.749 245.554 350.429C245.346 350.109 245.23 349.745 245.206 349.337V347.621C245.23 347.205 245.346 346.841 245.554 346.529C245.77 346.209 246.05 345.961 246.394 345.785C246.746 345.601 247.134 345.509 247.558 345.509C248.078 345.509 248.546 345.641 248.962 345.905C249.386 346.169 249.718 346.525 249.958 346.973C250.198 347.421 250.318 347.925 250.318 348.485C250.318 349.045 250.198 349.549 249.958 349.997C249.718 350.445 249.386 350.801 248.962 351.065C248.546 351.321 248.078 351.449 247.558 351.449ZM247.378 350.429C247.738 350.429 248.054 350.345 248.326 350.177C248.598 350.009 248.814 349.781 248.974 349.493C249.134 349.197 249.214 348.857 249.214 348.473C249.214 348.097 249.134 347.761 248.974 347.465C248.814 347.169 248.598 346.941 248.326 346.781C248.054 346.613 247.742 346.529 247.39 346.529C247.03 346.529 246.714 346.613 246.442 346.781C246.17 346.941 245.958 347.169 245.806 347.465C245.654 347.761 245.578 348.101 245.578 348.485C245.578 348.861 245.65 349.197 245.794 349.493C245.946 349.781 246.158 350.009 246.43 350.177C246.71 350.345 247.026 350.429 247.378 350.429ZM244.558 351.329V342.761H245.638V347.021L245.434 348.401L245.638 349.793V351.329H244.558ZM253.966 351.449C253.446 351.449 252.974 351.321 252.55 351.065C252.126 350.801 251.79 350.445 251.542 349.997C251.302 349.549 251.182 349.045 251.182 348.485C251.182 347.925 251.302 347.421 251.542 346.973C251.79 346.525 252.122 346.169 252.538 345.905C252.962 345.641 253.438 345.509 253.966 345.509C254.398 345.509 254.782 345.601 255.118 345.785C255.462 345.961 255.738 346.209 255.946 346.529C256.154 346.841 256.27 347.205 256.294 347.621V349.337C256.27 349.745 256.154 350.109 255.946 350.429C255.746 350.749 255.474 351.001 255.13 351.185C254.794 351.361 254.406 351.449 253.966 351.449ZM254.146 350.429C254.682 350.429 255.114 350.249 255.442 349.889C255.77 349.521 255.934 349.053 255.934 348.485C255.934 348.093 255.858 347.753 255.706 347.465C255.562 347.169 255.354 346.941 255.082 346.781C254.81 346.613 254.494 346.529 254.134 346.529C253.774 346.529 253.454 346.613 253.174 346.781C252.902 346.949 252.686 347.181 252.526 347.477C252.374 347.765 252.298 348.097 252.298 348.473C252.298 348.857 252.374 349.197 252.526 349.493C252.686 349.781 252.906 350.009 253.186 350.177C253.466 350.345 253.786 350.429 254.146 350.429ZM255.862 351.329V349.793L256.066 348.401L255.862 347.021V345.629H256.954V351.329H255.862ZM258.526 351.329V345.629H259.606V351.329H258.526ZM259.606 348.077L259.198 347.897C259.198 347.169 259.366 346.589 259.702 346.157C260.038 345.725 260.522 345.509 261.154 345.509C261.442 345.509 261.702 345.561 261.934 345.665C262.166 345.761 262.382 345.925 262.582 346.157L261.874 346.889C261.754 346.761 261.622 346.669 261.478 346.613C261.334 346.557 261.166 346.529 260.974 346.529C260.574 346.529 260.246 346.657 259.99 346.913C259.734 347.169 259.606 347.557 259.606 348.077ZM265.635 351.449C265.171 351.449 264.751 351.345 264.375 351.137C264.007 350.921 263.719 350.625 263.511 350.249C263.303 349.873 263.199 349.437 263.199 348.941V345.629H264.279V348.893C264.279 349.205 264.331 349.477 264.435 349.709C264.547 349.933 264.707 350.105 264.915 350.225C265.123 350.345 265.367 350.405 265.647 350.405C266.071 350.405 266.403 350.273 266.643 350.009C266.883 349.737 267.003 349.365 267.003 348.893V345.629H268.083V348.941C268.083 349.437 267.979 349.873 267.771 350.249C267.563 350.625 267.275 350.921 266.907 351.137C266.547 351.345 266.123 351.449 265.635 351.449Z" fill="#9B9B9B"/> -->
<!-- <rect x="91" y="364.329" width="196" height="50" rx="25" fill="#334A34"/> -->
<!-- <path d="M131.486 390.62C132.003 389.081 131.941 387.406 131.311 385.909C130.681 384.412 129.526 383.197 128.063 382.491C126.601 381.786 124.931 381.638 123.367 382.077C121.804 382.515 120.454 383.509 119.571 384.872C118.688 386.235 118.333 387.873 118.573 389.479C118.813 391.086 119.63 392.549 120.872 393.595C122.114 394.641 123.696 395.198 125.319 395.161C126.942 395.124 128.497 394.495 129.69 393.394" stroke="white" stroke-width="1.25" stroke-linecap="round" stroke-linejoin="round"/> -->
<!-- <path d="M129.75 393.461L133.917 397.628" stroke="white" stroke-width="1.25" stroke-linecap="round" stroke-linejoin="round"/> -->
<!-- <path d="M147.216 395.329V384.129H149.056V395.329H147.216ZM148.48 395.329V393.649H154.752V395.329H148.48ZM148.48 390.417V388.801H154.208V390.417H148.48ZM148.48 385.809V384.129H154.672V385.809H148.48ZM161.294 395.329L158.046 391.409L161.278 387.649H163.374L159.661 391.873L159.742 390.865L163.534 395.329H161.294ZM156.414 395.329V383.809H158.174V395.329H156.414ZM166.644 395.489C166.218 395.489 165.807 395.436 165.412 395.329C165.018 395.212 164.655 395.052 164.324 394.849C163.994 394.636 163.706 394.38 163.46 394.081L164.58 392.961C164.847 393.271 165.151 393.505 165.492 393.665C165.844 393.815 166.239 393.889 166.676 393.889C167.071 393.889 167.37 393.831 167.572 393.713C167.775 393.596 167.876 393.425 167.876 393.201C167.876 392.967 167.78 392.785 167.588 392.657C167.396 392.529 167.146 392.423 166.836 392.337C166.538 392.241 166.218 392.145 165.876 392.049C165.546 391.953 165.226 391.825 164.916 391.665C164.618 391.495 164.372 391.265 164.18 390.977C163.988 390.689 163.892 390.316 163.892 389.857C163.892 389.367 164.004 388.945 164.228 388.593C164.463 388.241 164.788 387.969 165.204 387.777C165.631 387.585 166.138 387.489 166.724 387.489C167.343 387.489 167.887 387.601 168.356 387.825C168.836 388.039 169.236 388.364 169.556 388.801L168.436 389.921C168.212 389.644 167.956 389.436 167.668 389.297C167.38 389.159 167.05 389.089 166.676 389.089C166.324 389.089 166.052 389.143 165.86 389.249C165.668 389.356 165.572 389.511 165.572 389.713C165.572 389.927 165.668 390.092 165.86 390.209C166.052 390.327 166.298 390.428 166.596 390.513C166.906 390.599 167.226 390.695 167.556 390.801C167.898 390.897 168.218 391.036 168.516 391.217C168.826 391.388 169.076 391.623 169.268 391.921C169.46 392.209 169.556 392.588 169.556 393.057C169.556 393.804 169.295 394.396 168.772 394.833C168.25 395.271 167.54 395.489 166.644 395.489ZM175.119 395.489C174.533 395.489 174.01 395.367 173.551 395.121C173.093 394.865 172.73 394.519 172.463 394.081C172.207 393.644 172.079 393.148 172.079 392.593V390.385C172.079 389.831 172.213 389.335 172.479 388.897C172.746 388.46 173.109 388.119 173.567 387.873C174.026 387.617 174.543 387.489 175.119 387.489C175.813 387.489 176.437 387.671 176.991 388.033C177.557 388.385 177.999 388.865 178.319 389.473C178.65 390.071 178.815 390.748 178.815 391.505C178.815 392.252 178.65 392.929 178.319 393.537C177.999 394.135 177.557 394.609 176.991 394.961C176.437 395.313 175.813 395.489 175.119 395.489ZM174.831 393.825C175.258 393.825 175.631 393.729 175.951 393.537C176.282 393.335 176.538 393.057 176.719 392.705C176.911 392.353 177.007 391.948 177.007 391.489C177.007 391.031 176.911 390.625 176.719 390.273C176.538 389.921 176.282 389.649 175.951 389.457C175.631 389.255 175.258 389.153 174.831 389.153C174.405 389.153 174.026 389.255 173.695 389.457C173.365 389.649 173.109 389.921 172.927 390.273C172.746 390.625 172.655 391.031 172.655 391.489C172.655 391.948 172.746 392.353 172.927 392.705C173.109 393.057 173.365 393.335 173.695 393.537C174.026 393.729 174.405 393.825 174.831 393.825ZM171.007 398.529V387.649H172.767V389.713L172.463 391.585L172.767 393.441V398.529H171.007ZM180.289 395.329V383.809H182.049V395.329H180.289ZM187.527 395.489C186.781 395.489 186.103 395.313 185.495 394.961C184.887 394.599 184.402 394.113 184.039 393.505C183.687 392.897 183.511 392.22 183.511 391.473C183.511 390.727 183.687 390.055 184.039 389.457C184.402 388.86 184.887 388.385 185.495 388.033C186.103 387.671 186.781 387.489 187.527 387.489C188.285 387.489 188.967 387.665 189.575 388.017C190.183 388.369 190.663 388.849 191.015 389.457C191.378 390.055 191.559 390.727 191.559 391.473C191.559 392.22 191.378 392.897 191.015 393.505C190.663 394.113 190.183 394.599 189.575 394.961C188.967 395.313 188.285 395.489 187.527 395.489ZM187.527 393.793C187.965 393.793 188.349 393.697 188.679 393.505C189.021 393.303 189.282 393.025 189.463 392.673C189.655 392.321 189.751 391.921 189.751 391.473C189.751 391.025 189.655 390.631 189.463 390.289C189.271 389.948 189.01 389.681 188.679 389.489C188.349 389.287 187.965 389.185 187.527 389.185C187.101 389.185 186.717 389.287 186.375 389.489C186.045 389.681 185.783 389.948 185.591 390.289C185.41 390.631 185.319 391.025 185.319 391.473C185.319 391.921 185.41 392.321 185.591 392.673C185.783 393.025 186.045 393.303 186.375 393.505C186.717 393.697 187.101 393.793 187.527 393.793ZM193.023 395.329V387.649H194.783V395.329H193.023ZM194.783 391.057L194.175 390.753C194.175 389.783 194.388 388.999 194.815 388.401C195.252 387.793 195.908 387.489 196.783 387.489C197.167 387.489 197.514 387.559 197.823 387.697C198.132 387.836 198.42 388.06 198.687 388.369L197.535 389.553C197.396 389.404 197.242 389.297 197.071 389.233C196.9 389.169 196.703 389.137 196.479 389.137C195.988 389.137 195.583 389.292 195.263 389.601C194.943 389.911 194.783 390.396 194.783 391.057ZM204.527 391.105V389.505H207.327C207.711 389.505 208.047 389.431 208.335 389.281C208.634 389.121 208.868 388.903 209.039 388.625C209.21 388.337 209.295 388.001 209.295 387.617C209.295 387.233 209.21 386.903 209.039 386.625C208.868 386.337 208.634 386.119 208.335 385.969C208.047 385.809 207.711 385.729 207.327 385.729H204.527V384.129H207.423C208.127 384.129 208.756 384.273 209.311 384.561C209.876 384.849 210.319 385.255 210.639 385.777C210.97 386.3 211.135 386.913 211.135 387.617C211.135 388.321 210.97 388.935 210.639 389.457C210.319 389.98 209.876 390.385 209.311 390.673C208.756 390.961 208.127 391.105 207.423 391.105H204.527ZM203.263 395.329V384.129H205.103V395.329H203.263ZM212.679 395.329V387.649H214.439V395.329H212.679ZM214.439 391.057L213.831 390.753C213.831 389.783 214.044 388.999 214.471 388.401C214.908 387.793 215.564 387.489 216.439 387.489C216.823 387.489 217.17 387.559 217.479 387.697C217.788 387.836 218.076 388.06 218.343 388.369L217.191 389.553C217.052 389.404 216.898 389.297 216.727 389.233C216.556 389.169 216.359 389.137 216.135 389.137C215.644 389.137 215.239 389.292 214.919 389.601C214.599 389.911 214.439 390.396 214.439 391.057ZM222.48 395.489C221.734 395.489 221.056 395.313 220.448 394.961C219.84 394.599 219.355 394.113 218.992 393.505C218.64 392.897 218.464 392.22 218.464 391.473C218.464 390.727 218.64 390.055 218.992 389.457C219.355 388.86 219.84 388.385 220.448 388.033C221.056 387.671 221.734 387.489 222.48 387.489C223.238 387.489 223.92 387.665 224.528 388.017C225.136 388.369 225.616 388.849 225.968 389.457C226.331 390.055 226.512 390.727 226.512 391.473C226.512 392.22 226.331 392.897 225.968 393.505C225.616 394.113 225.136 394.599 224.528 394.961C223.92 395.313 223.238 395.489 222.48 395.489ZM222.48 393.793C222.918 393.793 223.302 393.697 223.632 393.505C223.974 393.303 224.235 393.025 224.416 392.673C224.608 392.321 224.704 391.921 224.704 391.473C224.704 391.025 224.608 390.631 224.416 390.289C224.224 389.948 223.963 389.681 223.632 389.489C223.302 389.287 222.918 389.185 222.48 389.185C222.054 389.185 221.67 389.287 221.328 389.489C220.998 389.681 220.736 389.948 220.544 390.289C220.363 390.631 220.272 391.025 220.272 391.473C220.272 391.921 220.363 392.321 220.544 392.673C220.736 393.025 220.998 393.303 221.328 393.505C221.67 393.697 222.054 393.793 222.48 393.793ZM232.088 395.489C231.501 395.489 230.979 395.367 230.52 395.121C230.061 394.865 229.699 394.519 229.432 394.081C229.176 393.644 229.048 393.148 229.048 392.593V390.385C229.048 389.831 229.181 389.335 229.448 388.897C229.715 388.46 230.077 388.119 230.536 387.873C230.995 387.617 231.512 387.489 232.088 387.489C232.781 387.489 233.405 387.671 233.96 388.033C234.525 388.385 234.968 388.865 235.288 389.473C235.619 390.071 235.784 390.748 235.784 391.505C235.784 392.252 235.619 392.929 235.288 393.537C234.968 394.135 234.525 394.609 233.96 394.961C233.405 395.313 232.781 395.489 232.088 395.489ZM231.8 393.825C232.227 393.825 232.6 393.729 232.92 393.537C233.251 393.335 233.507 393.057 233.688 392.705C233.88 392.353 233.976 391.948 233.976 391.489C233.976 391.031 233.88 390.625 233.688 390.273C233.507 389.921 233.251 389.649 232.92 389.457C232.6 389.255 232.227 389.153 231.8 389.153C231.373 389.153 230.995 389.255 230.664 389.457C230.333 389.649 230.077 389.921 229.896 390.273C229.715 390.625 229.624 391.031 229.624 391.489C229.624 391.948 229.715 392.353 229.896 392.705C230.077 393.057 230.333 393.335 230.664 393.537C230.995 393.729 231.373 393.825 231.8 393.825ZM227.976 398.529V387.649H229.736V389.713L229.432 391.585L229.736 393.441V398.529H227.976ZM240.825 395.489C240.057 395.489 239.364 395.319 238.745 394.977C238.137 394.625 237.652 394.145 237.289 393.537C236.937 392.929 236.761 392.247 236.761 391.489C236.761 390.732 236.937 390.055 237.289 389.457C237.641 388.849 238.116 388.369 238.713 388.017C239.321 387.665 239.993 387.489 240.729 387.489C241.444 387.489 242.073 387.655 242.617 387.985C243.172 388.316 243.604 388.769 243.913 389.345C244.233 389.921 244.393 390.577 244.393 391.313C244.393 391.441 244.383 391.575 244.361 391.713C244.351 391.841 244.329 391.985 244.297 392.145H237.993V390.705H243.385L242.729 391.281C242.708 390.812 242.617 390.417 242.457 390.097C242.297 389.777 242.068 389.532 241.769 389.361C241.481 389.191 241.124 389.105 240.697 389.105C240.249 389.105 239.86 389.201 239.529 389.393C239.199 389.585 238.943 389.857 238.761 390.209C238.58 390.551 238.489 390.961 238.489 391.441C238.489 391.921 238.585 392.343 238.777 392.705C238.969 393.068 239.241 393.351 239.593 393.553C239.945 393.745 240.351 393.841 240.809 393.841C241.204 393.841 241.567 393.772 241.897 393.633C242.239 393.495 242.527 393.292 242.761 393.025L243.881 394.161C243.508 394.599 243.055 394.929 242.521 395.153C241.988 395.377 241.423 395.489 240.825 395.489ZM245.804 395.329V387.649H247.564V395.329H245.804ZM247.564 391.057L246.956 390.753C246.956 389.783 247.169 388.999 247.596 388.401C248.033 387.793 248.689 387.489 249.564 387.489C249.948 387.489 250.295 387.559 250.604 387.697C250.913 387.836 251.201 388.06 251.468 388.369L250.316 389.553C250.177 389.404 250.023 389.297 249.852 389.233C249.681 389.169 249.484 389.137 249.26 389.137C248.769 389.137 248.364 389.292 248.044 389.601C247.724 389.911 247.564 390.396 247.564 391.057ZM253.503 395.329V384.449H255.263V395.329H253.503ZM251.663 389.249V387.649H257.103V389.249H251.663ZM258.398 395.329V387.649H260.158V395.329H258.398ZM259.278 386.241C258.98 386.241 258.729 386.14 258.526 385.937C258.334 385.735 258.238 385.484 258.238 385.185C258.238 384.887 258.334 384.636 258.526 384.433C258.729 384.231 258.98 384.129 259.278 384.129C259.588 384.129 259.838 384.231 260.03 384.433C260.222 384.636 260.318 384.887 260.318 385.185C260.318 385.484 260.222 385.735 260.03 385.937C259.838 386.14 259.588 386.241 259.278 386.241Z" fill="white"/> -->
<path opacity="0.5" d="M290.915 201.12C323.901 134.411 271.819 116.972 271.819 116.972C236.267 114.008 221.996 138.822 204.272 141.632C170.357 147.008 141.312 119.108 147.26 91.8107C149.505 81.507 177.145 68.7466 184.299 115.907C186.819 132.521 183.057 150.511 154.719 159.013C113.9 171.259 91.3118 123.962 89.2076 122.566" stroke="url(#paint0_linear_1_897)" stroke-width="4" stroke-linecap="round" stroke-linejoin="round" stroke-dasharray="4 10"/>
<ellipse opacity="0.4" cx="69.4339" cy="114.802" rx="8.00354" ry="10.5357" transform="rotate(-120 69.4339 114.802)" fill="#DEDDDD"/>
<ellipse opacity="0.4" cx="93.6564" cy="100.201" rx="8.00354" ry="10.5357" transform="rotate(60 93.6564 100.201)" fill="#DEDDDD"/>
<path d="M78.7125 113.545C75.2556 112.619 73.2041 109.066 74.1304 105.609L76.0312 98.5149L83.107 100.411C86.5638 101.337 88.6153 104.89 87.689 108.347L85.7882 115.441L78.7125 113.545Z" fill="#DEDDDD"/>
<mask id="mask0_1_897" style="mask-type:luminance" maskUnits="userSpaceOnUse" x="73" y="98" width="15" height="18">
<path d="M78.7125 113.545C75.2556 112.619 73.2041 109.066 74.1304 105.609L76.0312 98.5149L83.107 100.411C86.5638 101.337 88.6153 104.89 87.689 108.347L85.7882 115.441L78.7125 113.545Z" fill="white"/>
</mask>
<g mask="url(#mask0_1_897)">
<rect x="75.535" y="115.201" width="2.18278" height="15.9851" transform="rotate(-120 75.535 115.201)" fill="#9B9B9B"/>
<path fill-rule="evenodd" clip-rule="evenodd" d="M73.1561 110.043L72.0644 108.152L85.9073 100.162L86.999 102.052L73.1561 110.043Z" fill="#9B9B9B"/>
</g>
<path d="M74.6115 90.4498L74.7649 84.9935" stroke="#DEDDDD" stroke-width="0.72"/>
<path d="M71.941 91.994L67.3916 88.6599" stroke="#DEDDDD" stroke-width="0.72"/>
<ellipse cx="75.1925" cy="96.0304" rx="5.82076" ry="5.81278" transform="rotate(-75 75.1925 96.0304)" fill="#9B9B9B"/>
<defs>
<linearGradient id="paint0_linear_1_897" x1="300.386" y1="33.4352" x2="120.144" y2="11.3256" gradientUnits="userSpaceOnUse">
<stop stop-color="#E0E0E0" stop-opacity="0.244084"/>
<stop offset="1" stop-color="#CBCBCB"/>
</linearGradient>
<clipPath id="clip0_1_897">
<rect width="318.758" height="196.659" fill="white" transform="translate(29.6211 98.6707)"/>
</clipPath>
</defs>
</svg>
