<?xml version="1.0"?>
<svg width="378" height="513" xmlns="http://www.w3.org/2000/svg" xmlns:svg="http://www.w3.org/2000/svg">
 <mask height="18" id="mask0_1_897" maskUnits="userSpaceOnUse" width="15" x="73" y="98">
  <path d="m78.71,113.55c-3.45,-0.93 -5.51,-4.48 -4.58,-7.94l1.9,-7.1l7.08,1.9c3.45,0.93 5.51,4.48 4.58,7.94l-1.9,7.09l-7.08,-1.89z" fill="white" id="svg_1"/>
 </mask>
 <defs>
  <linearGradient id="paint0_linear_1_897" x1="0.99" x2="0.15" y1="-0.41" y2="-0.59">
   <stop stop-color="#E0E0E0" stop-opacity="0.24"/>
   <stop offset="1" stop-color="#CBCBCB"/>
  </linearGradient>
  <clipPath id="clip0_1_897">
   <rect fill="white" height="196.66" id="svg_2" transform="translate(29.6211 98.6707)" width="318.76"/>
  </clipPath>
 </defs>
 <g class="layer">
  <title>Layer 1</title>
  <path d="m276.72,104.09l0,-5.26l20.34,0l0,5.26l-13.88,16.74l14.12,0l0,5.26l-21.3,0l0,-5.26l13.88,-16.74l-13.16,0z" fill="#DEDDDD" id="svg_3"/>
  <path d="m302.51,132.72l0,-3.35l13.16,0l0,3.35l-8.85,10.76l9.09,0l0,3.35l-13.88,0l0,-3.35l8.85,-10.76l-8.37,0z" fill="#DEDDDD" id="svg_4"/>
  <g clip-path="url(#clip0_1_897)" id="svg_5">
   <g id="svg_6" opacity="0.45">
    <rect fill="#DEDDDD" height="97.33" id="svg_7" width="19.84" x="275.45" y="197.9"/>
    <rect fill="#DEDDDD" height="54.81" id="svg_8" width="19.84" x="219.7" y="240.42"/>
    <path d="m239.54,163.88l17.96,-15.12l17.95,15.12l0,131.35l-35.91,0l0,-131.35z" fill="#DEDDDD" id="svg_9"/>
    <rect fill="white" height="25.52" id="svg_10" width="10.39" x="245.21" y="168.6"/>
    <rect fill="white" height="25.52" id="svg_11" width="10.39" x="245.21" y="197.9"/>
    <rect fill="white" height="25.52" id="svg_12" width="10.39" x="245.21" y="227.19"/>
    <rect fill="white" height="25.52" id="svg_13" width="10.39" x="259.39" y="168.6"/>
    <rect fill="white" height="25.52" id="svg_14" width="10.39" x="259.39" y="197.9"/>
    <rect fill="white" height="25.52" id="svg_15" width="10.39" x="259.39" y="227.19"/>
    <rect fill="white" height="37.8" id="svg_16" width="24.57" x="245.21" y="257.43"/>
    <rect fill="#DEDDDD" height="131.35" id="svg_17" width="26.46" x="115.75" y="163.88"/>
    <rect fill="#DEDDDD" height="7.56" id="svg_18" width="17.01" x="120.47" y="156.32"/>
    <path d="m123.31,148.76l5.67,-4.26l5.67,4.26l0,7.56l-11.34,0l0,-7.56z" fill="#DEDDDD" id="svg_19"/>
    <path d="m142.21,210.18l26.46,15.12l0,69.93l-26.46,0l0,-85.05z" fill="#DEDDDD" id="svg_20"/>
   </g>
   <path d="m44.39,294.79l260.01,0" id="svg_21" stroke="#DEDDDD" stroke-miterlimit="10" stroke-width="1.89"/>
   <path d="m313.5,294.79l32.14,0" id="svg_22" stroke="#DEDDDD" stroke-miterlimit="10" stroke-width="1.89"/>
   <rect fill="#C0C0C0" height="11.88" id="svg_23" width="28.52" x="137.05" y="226.29"/>
   <rect fill="#DDDDDD" height="9.51" id="svg_24" width="133.08" x="127.55" y="216.79"/>
   <path d="m120.79,207.88l73.67,-52.88l73.67,52.88l0,9.5l-147.34,0l0,-9.5z" fill="#CCC8C8" id="svg_25"/>
   <path d="m151.68,201.85l42.78,-30.22l42.77,30.22l0,5.43l-85.55,0l0,-5.43z" fill="#E9E9E9" id="svg_26"/>
   <rect fill="#DBD7D7" height="8.32" id="svg_27" width="147.34" x="120.42" y="286.89"/>
   <rect fill="#C0C0C0" height="13.07" id="svg_28" width="28.52" x="137.05" y="273.82"/>
   <rect fill="#D2CFCF" height="35.65" id="svg_29" width="16.64" x="143" y="238.18"/>
   <rect fill="#C0C0C0" height="11.88" id="svg_30" width="28.52" x="222.61" y="226.29"/>
   <rect fill="#D2CFCF" height="35.65" id="svg_31" width="16.64" x="228.55" y="238.18"/>
   <rect fill="#C0C0C0" height="13.07" id="svg_32" width="28.52" x="222.61" y="273.82"/>
  </g>
  <path d="m91.83,216.07c0,0 -3.69,-1.38 -5.54,5.53c-1.84,6.93 -7.38,5.56 -8.77,13.42c-1.39,7.85 0.44,15.71 -0.92,19.4c-1.37,3.7 -5.54,9.72 -2.31,17.1c3.23,7.38 10.61,12.02 20.77,9.24c10.16,-2.77 19.86,-1.84 21.23,-18.02c1.37,-16.17 -12,-12.48 -11.54,-19.4c0.47,-6.93 7.39,-9.25 2.31,-15.72c-5.08,-6.46 -8.77,-4.62 -11.08,-8.78c-2.31,-4.15 -4.15,-2.77 -4.15,-2.77z" fill="#DEDDDD" id="svg_33"/>
  <path d="m93.55,294.75l-0.28,-73.35l-0.24,0l-2.12,73.49l2.64,-0.14z" fill="#F5F5F5" id="svg_34"/>
  <path d="m91.42,276.21l-16.23,-12.08l17.22,10.35l-0.99,1.73z" fill="#F5F5F5" id="svg_35"/>
  <path d="m92.66,252.98l-12.06,-8.97l12.8,7.69l-0.74,1.28z" fill="#F5F5F5" id="svg_36"/>
  <path d="m93.4,267.59l16.23,-12.08l-17.22,10.35l0.99,1.73z" fill="#F5F5F5" id="svg_37"/>
  <path d="m93.55,239.65l10.67,-7.93l-11.32,6.8l0.65,1.13z" fill="#F5F5F5" id="svg_38"/>
  <path d="m129.75,393.46l4.17,4.17" id="svg_43" stroke="white" stroke-linecap="round" stroke-linejoin="round" stroke-width="1.25"/>
  <path d="m290.92,201.12c32.98,-66.71 -19.1,-84.15 -19.1,-84.15c-35.55,-2.96 -49.82,21.85 -67.55,24.66c-33.91,5.38 -62.96,-22.52 -57.01,-49.82c2.24,-10.3 29.89,-23.06 37.04,24.1c2.52,16.61 -1.24,34.6 -29.58,43.1c-40.82,12.25 -63.41,-35.05 -65.51,-36.44" id="svg_45" opacity="0.5" stroke="url(#paint0_linear_1_897)" stroke-dasharray="4 10" stroke-linecap="round" stroke-linejoin="round" stroke-width="4"/>
  <ellipse cx="69.43" cy="114.8" fill="#DEDDDD" id="svg_46" opacity="0.4" rx="8" ry="10.54" transform="rotate(-120 69.4339 114.802)"/>
  <ellipse cx="93.66" cy="100.2" fill="#DEDDDD" id="svg_47" opacity="0.4" rx="8" ry="10.54" transform="rotate(60 93.6564 100.201)"/>
  <path d="m78.71,113.55c-3.45,-0.93 -5.51,-4.48 -4.58,-7.94l1.9,-7.1l7.08,1.9c3.45,0.93 5.51,4.48 4.58,7.94l-1.9,7.09l-7.08,-1.89z" fill="#DEDDDD" id="svg_48"/>
  <g id="svg_49" mask="url(#mask0_1_897)">
   <rect fill="#9B9B9B" height="15.99" id="svg_50" transform="rotate(-120 75.535 115.201)" width="2.18" x="75.53" y="115.2"/>
   <path clip-rule="evenodd" d="m73.16,110.04l-1.1,-1.89l13.85,-7.99l1.09,1.89l-13.84,7.99z" fill="#9B9B9B" fill-rule="evenodd" id="svg_51"/>
  </g>
  <path d="m74.61,90.45l0.15,-5.46" id="svg_52" stroke="#DEDDDD" stroke-width="0.72"/>
  <path d="m71.94,91.99l-4.55,-3.33" id="svg_53" stroke="#DEDDDD" stroke-width="0.72"/>
  <ellipse cx="75.19" cy="96.03" fill="#9B9B9B" id="svg_54" rx="5.82" ry="5.81" transform="rotate(-75 75.1925 96.0304)"/>
 </g>
</svg>