<svg width="337" height="316" viewBox="0 0 337 316" fill="none" xmlns="http://www.w3.org/2000/svg">
<path opacity="0.5" d="M271.915 212.12C304.901 145.411 252.819 127.972 252.819 127.972C217.267 125.008 202.996 149.822 185.272 152.632C151.357 158.008 122.312 130.108 128.26 102.811C130.505 92.507 158.145 79.7466 165.299 126.907C167.819 143.521 164.057 161.511 135.719 170.013C94.8995 182.259 72.3118 134.962 70.2076 133.566" stroke="url(#paint0_linear_1_944)" stroke-width="4" stroke-linecap="round" stroke-linejoin="round" stroke-dasharray="4 10"/>
<ellipse opacity="0.4" cx="50.4339" cy="125.802" rx="8.00354" ry="10.5357" transform="rotate(-120 50.4339 125.802)" fill="#DEDDDD"/>
<ellipse opacity="0.4" cx="74.6564" cy="111.201" rx="8.00354" ry="10.5357" transform="rotate(60 74.6564 111.201)" fill="#DEDDDD"/>
<path d="M59.7125 124.545C56.2556 123.619 54.2041 120.066 55.1304 116.609L57.0312 109.515L64.107 111.411C67.5638 112.337 69.6153 115.89 68.689 119.347L66.7882 126.441L59.7125 124.545Z" fill="#DEDDDD"/>
<mask id="mask0_1_944" style="mask-type:luminance" maskUnits="userSpaceOnUse" x="54" y="109" width="15" height="18">
<path d="M59.7125 124.545C56.2556 123.619 54.2041 120.066 55.1304 116.609L57.0312 109.515L64.107 111.411C67.5638 112.337 69.6153 115.89 68.689 119.347L66.7882 126.441L59.7125 124.545Z" fill="white"/>
</mask>
<g mask="url(#mask0_1_944)">
<rect x="56.535" y="126.201" width="2.18278" height="15.9851" transform="rotate(-120 56.535 126.201)" fill="#9B9B9B"/>
<path fill-rule="evenodd" clip-rule="evenodd" d="M54.1561 121.043L53.0644 119.152L66.9073 111.162L67.999 113.052L54.1561 121.043Z" fill="#9B9B9B"/>
</g>
<path d="M55.6115 101.45L55.7649 95.9935" stroke="#DEDDDD" stroke-width="0.72"/>
<path d="M52.941 102.994L48.3916 99.6599" stroke="#DEDDDD" stroke-width="0.72"/>
<ellipse cx="56.1925" cy="107.03" rx="5.82076" ry="5.81278" transform="rotate(-75 56.1925 107.03)" fill="#9B9B9B"/>
<defs>
<linearGradient id="paint0_linear_1_944" x1="281.386" y1="44.4352" x2="101.144" y2="22.3256" gradientUnits="userSpaceOnUse">
<stop stop-color="#E0E0E0" stop-opacity="0.244084"/>
<stop offset="1" stop-color="#CBCBCB"/>
</linearGradient>
</defs>
</svg>

